<svg xmlns="http://www.w3.org/2000/svg" viewBox="0 0 889.75 207.4"><defs><style>.cls-1{fill:#fff;}</style></defs><title>logo_ad-creativ_white</title><g id="Calque_2" data-name="Calque 2"><g id="Calque_1-2" data-name="Calque 1"><path class="cls-1" d="M170.14,207.4c-2-1.91-4.83-1.7-7.27-2.46-25.24-7.91-39.33-25.8-44.4-50.88-4-19.74-1.76-39,8.51-56.79,17.26-30,57.26-40,86.23-21.6,2.27,1.44,3.41,1.93,3.4-1.54q-.11-36.34-.11-72.71A5.76,5.76,0,0,0,216.12,0h32q0,60.48-.08,121c0,26.71-.1,53.43,0,80.14,0,3-1.07,3.64-3.77,3.58-6.65-.15-13.32-.36-20,.06-4.55.28-6.45-1.21-6.16-5.69a46,46,0,0,0-.38-5c-8.3,7.53-17.76,10.9-27.62,13.34Zm48.69-70.48c-.23-7.73-1.05-16.13-4.64-24-5.3-11.61-14-19-27-20s-23.76,3.6-31.15,14.88c-10.44,15.92-10,44.18,1.08,59.63a32.84,32.84,0,0,0,56-3.75C217.42,155.55,218.49,146.7,218.83,136.92Z"/><path class="cls-1" d="M31.22,207.4c-1-1.69-2.84-1.45-4.33-1.91C-.44,197-9.23,160.73,11.29,140.83c12.6-12.23,28.43-17.37,45.27-20.05,6.06-1,12.21-1.53,18.34-1.94,2.59-.18,3.37-.85,3.22-3.51-.78-13.65-7.93-20.75-21.78-21.58C44.21,93,33,96.13,22.1,101.12c-2.1,1-4.15,2-6.79,3.29-1.08-8-2.08-15.48-3.1-23A2.75,2.75,0,0,1,14,78.29C33.82,68.22,54.64,63.47,76.7,68.5c18.7,4.27,28.76,17.23,31.54,38.29,1.8,13.58.8,27.2,1.08,40.8.17,7.8-.22,15.6.63,23.39.94,8.49,3,10.73,11.65,10.81,3.93,0,4.67,1.08,4,4.86-1.16,6.86-1.68,13.83-2.46,20.75h-20c-.29-.36-.5-1-.86-1.06-8.08-2.33-14.84-6.42-19.22-13.85-1.41-2.4-2.4-.43-3.32.47a50.09,50.09,0,0,1-18.41,11.38c-3.34,1.22-7.07,1.09-10.16,3.06Zm47-51.4c0-4.15-.18-8.31.06-12.44.17-3-.63-4.19-3.87-3.72-5.91.85-11.9,1.24-17.68,2.86-6.75,1.89-13.36,4.16-18.51,9.22-5.65,5.54-7.27,14.42-4.1,22.13,3,7.27,9.34,9,16.24,9.27,8.1.34,15.27-2.6,21.91-7,4.08-2.71,6.94-5.85,6-11.35C77.79,162,78.19,159,78.19,156Z"/><path class="cls-1" d="M503,207.4c-3.17-2-6.92-1.56-10.38-2.34-37.41-8.49-55.48-39.35-53.16-74.55a74.89,74.89,0,0,1,9.39-32.67c.36-.63,1-1.37.25-2.19l-.11.11c2.19.07,2.29-2,3.12-3.2,23.28-33.25,71.41-33.27,94.67-10.8,16.51,15.95,19.79,35.66,16.19,57.33-.57,3.46-3,2.43-5,2.43q-40.47.09-80.92,0c-6.08,0-6.08,0-4.67,6,4.82,20.64,19.72,32.67,41,33,4.83.08,9.66.16,14.43-.83,1.5-.31,2.76-.61,3.41,1.56,2.37,7.94,6.9,14.59,13.46,20.52A88.26,88.26,0,0,1,525,206.4c-1,.13-2.4-.44-3,1Zm-.23-86.87h26.42c1.67,0,3.2.24,3.33-2.37.45-9.46-6.7-21.12-15.69-23.86-15.56-4.73-36.74-1.73-43.19,22.57-.79,3-.38,3.77,2.72,3.71C485.13,120.43,493.94,120.53,502.74,120.53Z"/><path class="cls-1" d="M566.94,207.4c-1.78-1.76-4.26-1.45-6.4-2.07-26.51-7.75-32.43-38-23.35-55.86,1.4-2.76,3.12-4.13,6.54-3.93,6,.36,12-.16,18,.2,3.53.21,4.69-1.26,5-4.32.45-4.12,1.2-8.22,1.42-12.35.14-2.61,1.2-3.75,3.6-4.51a127.65,127.65,0,0,1,34.81-5.87c3.87-.13,4.71-1.31,4.41-5-1-12.42-7.4-19-19.87-20.1-8.23-.72-16.35-.16-24.13,2.62-3.32,1.19-4.71.31-6.1-2.61-2.94-6.17-7.41-11.3-12.63-16.31,19.8-9.53,39.78-13.92,61-9.43,13,2.76,22.56,10.18,27.8,22.69.46,1.11.33,2.71,1.9,3.2l-.09-.12c3.19,13.65,3.81,27.5,3.66,41.47-.13,11.62.06,23.25.43,34.87.26,8.21,2.62,10.55,10.58,11.45,1.68.19,2.68.36,2.87,2.43.69,7.35,5.53,12.15,10.68,16.77,2.56,2.3,6,3.55,7.8,6.74h-36c-.93-1.78-2.85-1.4-4.32-1.79-7.35-2-13.46-5.75-17.47-12.21-1.92-3.1-2.92-2.3-5-.29-6.65,6.57-14.74,10.47-23.86,12.49-2.13.47-4.63-.1-6.37,1.8Zm44.19-52h0c0-4.14-.17-8.3.06-12.44.17-3-1-3.64-3.73-3.42-9.83.8-19.44,2.42-28.45,6.66a26.68,26.68,0,0,0-7.77,5.33c-6.19,6.28-6.87,13.82-4.2,21.69,2.52,7.41,8.91,9.27,15.94,9.6,8.12.37,15.31-2.37,22-6.67,4.35-2.77,7.11-6.16,6.22-11.8C610.76,161.46,611.13,158.41,611.13,155.42Z"/><path class="cls-1" d="M325.06,207.4c-1-1.84-3-1.18-4.45-1.48-28-5.79-47.07-26.23-51.58-54.5-2.44-15.32-1.31-30,4.09-44.49,9.69-25.89,32-40.83,61.29-40.77,12.88,0,25.51,1.69,37.35,7.41,2.89,1.4,3.85,3,3.37,6.11-.94,6.23-1.64,12.5-2.21,18.78-.31,3.42-1.41,3.72-4.31,2.12a63.91,63.91,0,0,0-33-8c-16.5.42-28.5,9.34-33.18,25.15a65.46,65.46,0,0,0-.79,34.44c5.3,21.79,21.89,32,45,28a70.94,70.94,0,0,0,22.58-7.49c2.6-1.43,3.66-1.43,3.89,2a149.58,149.58,0,0,0,2,17.29c.81,4.32-1,6.32-4.59,8a76.91,76.91,0,0,1-23.44,6.46c-1,.13-2.4-.47-3,1Z"/><path class="cls-1" d="M639,93.79c.81-7.08,1.77-14.15,2.35-21.25.27-3.24,1.64-4.35,4.67-3.86a2.1,2.1,0,0,0,.5,0c4.25-.35,9.69,1.85,12.44-1,2.52-2.6.62-7.92.73-12q.2-7.22,0-14.44c-.07-2.36.45-3.54,3.14-3.77,8.11-.71,16.21-1.61,24.29-2.63,3-.38,3.67.84,3.64,3.55-.12,8.62.11,17.26-.11,25.88-.09,3.39.77,4.63,4.37,4.51,7.81-.27,15.64,0,23.45-.14,2.6,0,4,.39,3.88,3.45-.2,6.13-.17,12.28,0,18.42.08,2.69-.92,3.35-3.46,3.3-8-.13-16,.07-24-.11-3.06-.07-4.34.54-4.31,4,.2,22.9.07,45.8.25,68.71.1,12.07,3,14.77,15.19,15,1.83,0,3.66.06,5.49.07,9.2.08,9.28.07,9.17,9.5-.07,5.12.54,10.26-.42,15.36-8.09,0-16.17-.06-24.26.05-2,0-4.32-.83-6.12,1h-1c-.18-.25-.32-.67-.56-.74-22.07-6.41-28.6-15-28.63-37.79,0-23.58-.08-47.16.07-70.73,0-3.46-.87-4.64-4.42-4.46-5.48.27-11,0-16.47,0Z"/><path class="cls-1" d="M723.86,207.4,724,90.81c0-5.81.21-11.63-.07-17.43-.18-3.59.65-5,4.59-4.79,7.47.34,15,.34,22.46,0,4-.19,4.58,1.33,4.57,4.84q-.16,64.53-.06,129.06c0,1.64.22,3.27.34,4.91Z"/><path class="cls-1" d="M689.87,207.4c1.8-1.79,4.08-.93,6.12-1,8.09-.11,16.17-.05,24.26-.05l.61,1Z"/><path class="cls-1" d="M757.15,68.7c10.1,0,19.57.11,29-.06,3.25-.06,3.15,2.31,3.82,4.2q15.9,44.75,31.74,89.49c.39,1.09.82,2.16,1.59,4.18,4-11.23,7.72-21.67,11.43-32.12C842,113.93,849.36,93.5,856.42,73c1.18-3.45,2.79-4.48,6.33-4.37,8.8.27,17.62.09,27,.09-4.28,11.23-8.38,22-12.52,32.83-12.5,32.66-25.08,65.29-37.44,98-1.38,3.66-3,5.23-7.09,5a162.24,162.24,0,0,0-19,0c-3.58.18-5.15-1.07-6.41-4.38Q784.73,140.6,761.85,81.2C760.32,77.22,758.84,73.21,757.15,68.7Z"/><path class="cls-1" d="M449.07,95.65c-3.66.08-7.32.2-11,.23a33.87,33.87,0,0,0-19.2,6.07c-5.5,3.76-8.56,8.23-8.43,15.63.48,27.24.09,54.5.31,81.75,0,4.24-1.18,5.32-5.27,5.15-7.65-.32-15.32-.2-23,0-2.75.06-3.71-.66-3.7-3.58q.14-64.31,0-128.61c0-2.84.82-3.7,3.66-3.62,7.15.18,14.32.14,21.48,0,2.29,0,3.23.55,3.36,3,.24,4.25.87,8.48,1.39,13.25,3.88-3.34,7.12-6.39,10.62-9.1a47.46,47.46,0,0,1,31.12-10.19c3.58.09,4.09,1.21,3.46,4.31-1.75,8.6-3.31,17.24-4.94,25.87Z"/><path class="cls-1" d="M755.48,30c-.51,4.35,2.29,11.15-1.11,14.38-3.11,2.95-9.82.65-14.94.79-4,.11-8-.07-12,.07-2.46.09-3.57-.53-3.52-3.29.17-8.45.14-16.91,0-25.36,0-2.5.65-3.56,3.35-3.51q12.46.21,24.93,0c2.83-.06,3.32,1.24,3.25,3.61C755.4,20.84,755.48,25,755.48,30Z"/></g></g></svg>